<svg width="40" height="40" viewBox="0 0 40 40" fill="none" xmlns="http://www.w3.org/2000/svg">
<path d="M31.1304 0H8.86957C3.97104 0 0 3.97104 0 8.86957V31.1304C0 36.029 3.97104 40 8.86957 40H31.1304C36.029 40 40 36.029 40 31.1304V8.86957C40 3.97104 36.029 0 31.1304 0Z" fill="#FF6B6B"/>
<path d="M34.3582 13.7391L30.386 7.06087C30.3404 6.98317 30.2754 6.91862 30.1973 6.87351C30.1193 6.82841 30.0309 6.80428 29.9408 6.80348H10.0591C9.96896 6.80428 9.88058 6.82841 9.80256 6.87351C9.72453 6.91862 9.65952 6.98317 9.61386 7.06087L5.64169 13.7391C5.58571 13.825 5.55591 13.9253 5.55591 14.0278C5.55591 14.1303 5.58571 14.2306 5.64169 14.3165L19.5547 32.9739C19.6049 33.0363 19.6685 33.0867 19.7407 33.1213C19.813 33.1559 19.892 33.1739 19.9721 33.1739C20.0522 33.1739 20.1313 33.1559 20.2035 33.1213C20.2758 33.0867 20.3393 33.0363 20.3895 32.9739L34.2747 14.3583C34.3628 14.2837 34.4201 14.1791 34.4356 14.0648C34.451 13.9504 34.4234 13.8344 34.3582 13.7391ZM10.3582 7.84696H29.6417L32.9947 13.4817H7.00517L10.3582 7.84696ZM15.826 14.5322H24.1739L19.9999 30.6017L15.826 14.5322ZM14.7478 14.5322L18.8382 30.2052L7.12343 14.5322H14.7478ZM21.2034 30.2052L25.2939 14.5322H32.8486L21.2034 30.2052Z" fill="white"/>
</svg>
