<svg width="116" height="40" viewBox="0 0 116 40" fill="none" xmlns="http://www.w3.org/2000/svg">
<path d="M31.1304 0H8.86957C3.97104 0 0 3.97104 0 8.86957V31.1304C0 36.029 3.97104 40 8.86957 40H31.1304C36.029 40 40 36.029 40 31.1304V8.86957C40 3.97104 36.029 0 31.1304 0Z" fill="#FF6B6B"/>
<path d="M34.3582 13.7391L30.386 7.06087C30.3404 6.98317 30.2754 6.91862 30.1973 6.87351C30.1193 6.82841 30.0309 6.80428 29.9408 6.80348H10.0591C9.96896 6.80428 9.88058 6.82841 9.80256 6.87351C9.72453 6.91862 9.65952 6.98317 9.61386 7.06087L5.64169 13.7391C5.58571 13.825 5.55591 13.9253 5.55591 14.0278C5.55591 14.1303 5.58571 14.2306 5.64169 14.3165L19.5547 32.9739C19.6049 33.0363 19.6685 33.0867 19.7407 33.1213C19.813 33.1559 19.892 33.1739 19.9721 33.1739C20.0522 33.1739 20.1313 33.1559 20.2035 33.1213C20.2758 33.0867 20.3393 33.0363 20.3895 32.9739L34.2747 14.3583C34.3628 14.2837 34.4201 14.1791 34.4356 14.0648C34.451 13.9504 34.4234 13.8344 34.3582 13.7391ZM10.3582 7.84696H29.6417L32.9947 13.4817H7.00517L10.3582 7.84696ZM15.826 14.5322H24.1739L19.9999 30.6017L15.826 14.5322ZM14.7478 14.5322L18.8382 30.2052L7.12343 14.5322H14.7478ZM21.2034 30.2052L25.2939 14.5322H32.8486L21.2034 30.2052Z" fill="white"/>
<path d="M109.713 29.6885C109.344 30.702 108.942 31.5244 108.506 32.1558C108.07 32.8037 107.55 33.2689 106.947 33.5514C106.343 33.8505 105.589 34 104.683 34V32.0062C105.89 32.0062 106.804 31.8152 107.424 31.433C108.045 31.0675 108.539 30.378 108.908 29.3645L109.235 28.4424H108.506L104.809 17.9751C104.641 17.4933 104.516 17.2108 104.432 17.1277C104.348 17.028 104.172 16.9616 103.904 16.9284L102.621 16.7788V16.1059H108.355V16.7788L107.072 16.9284C106.838 16.945 106.703 17.0031 106.67 17.1028C106.636 17.2025 106.703 17.4933 106.871 17.9751L109.889 26.5981L112.932 17.9502C113.083 17.4683 113.141 17.1859 113.108 17.1028C113.091 17.0197 112.957 16.9616 112.706 16.9284L111.398 16.7788V16.1059H116V16.7788L114.717 16.9284C114.466 16.9616 114.298 17.0197 114.214 17.1028C114.131 17.1859 114.005 17.4683 113.837 17.9502L109.713 29.6885Z" fill="black"/>
<path d="M100.837 24.8785H101.491V28.4424H92.2109V27.8193L98.9508 16.9034H95.1785C94.6252 16.9034 94.2815 16.945 94.1474 17.028C94.03 17.0945 93.921 17.269 93.8204 17.5514L93.1414 19.6698H92.4876V16.1059H101.239V16.729L94.5498 27.6449H98.7999C99.3699 27.6449 99.7136 27.6116 99.831 27.5452C99.9651 27.4787 100.074 27.2959 100.158 26.9969L100.837 24.8785Z" fill="black"/>
<path d="M90.5331 25.9003C90.2816 26.8639 89.8876 27.5701 89.3511 28.0187C88.8146 28.4673 88.1272 28.6916 87.2889 28.6916C86.4842 28.6916 85.8303 28.5171 85.3273 28.1682C84.8243 27.8027 84.4555 27.3292 84.2208 26.7476C83.9861 26.1661 83.8687 25.5597 83.8687 24.9283V18.1246C83.8687 17.5431 83.8435 17.2025 83.7933 17.1028C83.7597 17.0031 83.6004 16.9366 83.3154 16.9034L81.9323 16.7788V16.1059H83.8687V12.8411L85.9309 12.4174V16.1059H90.0301V16.9034H85.9309V25.1277C85.9309 26.1744 86.0734 26.8972 86.3584 27.2959C86.6602 27.6947 87.0542 27.8941 87.5404 27.8941C88.0266 27.8941 88.3955 27.7113 88.6469 27.3458C88.9152 26.9802 89.108 26.3821 89.2254 25.5514L90.5331 25.9003Z" fill="black"/>
<path d="M77.6611 13.3147C77.2588 13.3147 76.9234 13.19 76.6552 12.9408C76.4037 12.675 76.278 12.3344 76.278 11.919C76.278 11.5203 76.4037 11.1963 76.6552 10.9471C76.9234 10.6978 77.2588 10.5732 77.6611 10.5732C78.0635 10.5732 78.3904 10.6978 78.6419 10.9471C78.9102 11.1963 79.0443 11.5203 79.0443 11.919C79.0443 12.3344 78.9102 12.675 78.6419 12.9408C78.3904 13.19 78.0635 13.3147 77.6611 13.3147ZM74.7188 16.7788V16.1059H78.7174V26.4237C78.7174 27.0052 78.7425 27.3458 78.7928 27.4455C78.8431 27.5452 79.0024 27.6116 79.2706 27.6449L80.6538 27.7944V28.4424H74.7188V27.7944L76.1019 27.6449C76.3702 27.6116 76.5295 27.5452 76.5797 27.4455C76.63 27.3458 76.6552 27.0052 76.6552 26.4237V18.1246C76.6552 17.5431 76.63 17.2025 76.5797 17.1028C76.5295 17.0031 76.3702 16.9367 76.1019 16.9034L74.7188 16.7788Z" fill="black"/>
<path d="M67.1752 10.6729V10H71.1738V26.4237C71.1738 27.0052 71.199 27.3458 71.2492 27.4455C71.2995 27.5452 71.4588 27.6116 71.7271 27.6448L73.1102 27.7944V28.4424H67.1752V27.7944L68.5583 27.6448C68.8266 27.6116 68.9859 27.5452 69.0362 27.4455C69.0865 27.3458 69.1116 27.0052 69.1116 26.4237V12.0187C69.1116 11.4372 69.0865 11.0966 69.0362 10.9969C68.9859 10.8972 68.8266 10.8307 68.5583 10.7975L67.1752 10.6729Z" fill="black"/>
<path d="M59.4943 21.4393V20.7664H65.9072V21.4393L64.524 21.5639C64.2558 21.5971 64.0965 21.6636 64.0462 21.7632C63.9959 21.8629 63.9707 22.2035 63.9707 22.7851V28.4424H63.3672C63.0486 27.9605 62.6714 27.5784 62.2355 27.296C61.7493 27.7279 61.1792 28.0685 60.5254 28.3178C59.8883 28.567 59.1506 28.6916 58.3123 28.6916C56.971 28.6916 55.831 28.3676 54.8921 27.7196C53.9532 27.055 53.2323 26.1329 52.7293 24.9533C52.2431 23.7736 52 22.4029 52 20.8411V18.972C52 17.4434 52.2431 16.0976 52.7293 14.9346C53.2323 13.7716 53.9616 12.8661 54.9172 12.2181C55.8897 11.5701 57.0633 11.2461 58.438 11.2461C59.7625 11.2461 60.8523 11.4953 61.7074 11.9938C62.5792 12.4756 63.1995 13.1153 63.5684 13.9128C63.954 14.7103 64.0797 15.566 63.9456 16.4798L61.7828 17.0031C61.9672 15.4081 61.7661 14.1869 61.1792 13.3396C60.5924 12.4756 59.6787 12.0436 58.438 12.0436C57.0968 12.0436 56.0825 12.5088 55.3951 13.4393C54.7244 14.3697 54.3891 15.8484 54.3891 17.8754V22.0374C54.3891 24.0644 54.7328 25.5514 55.4202 26.4984C56.1244 27.4289 57.1555 27.8941 58.5135 27.8941C59.2009 27.8941 59.838 27.7695 60.4248 27.5203C61.0284 27.271 61.5313 26.8723 61.9337 26.324V22.7851C61.9337 22.2035 61.9086 21.8629 61.8583 21.7632C61.808 21.6469 61.6487 21.5805 61.3804 21.5639L59.4943 21.4393Z" fill="black"/>
</svg>
