<svg width="136" height="40" viewBox="0 0 136 40" fill="none" xmlns="http://www.w3.org/2000/svg">
<path d="M31.1304 0H8.86957C3.97104 0 0 3.97104 0 8.86957V31.1304C0 36.029 3.97104 40 8.86957 40H31.1304C36.029 40 40 36.029 40 31.1304V8.86957C40 3.97104 36.029 0 31.1304 0Z" fill="#FF6B6B"/>
<path d="M34.3582 13.7391L30.386 7.06086C30.3404 6.98316 30.2754 6.91861 30.1973 6.8735C30.1193 6.82839 30.0309 6.80426 29.9408 6.80347H10.0591C9.96896 6.80426 9.88058 6.82839 9.80256 6.8735C9.72453 6.91861 9.65952 6.98316 9.61386 7.06086L5.64169 13.7391C5.58571 13.825 5.55591 13.9253 5.55591 14.0278C5.55591 14.1303 5.58571 14.2306 5.64169 14.3165L19.5547 32.9739C19.6049 33.0363 19.6685 33.0867 19.7407 33.1213C19.813 33.1559 19.892 33.1738 19.9721 33.1738C20.0522 33.1738 20.1313 33.1559 20.2035 33.1213C20.2758 33.0867 20.3393 33.0363 20.3895 32.9739L34.2747 14.3582C34.3628 14.2837 34.4201 14.1791 34.4356 14.0647C34.451 13.9504 34.4234 13.8343 34.3582 13.7391ZM10.3582 7.84695H29.6417L32.9947 13.4817H7.00517L10.3582 7.84695ZM15.826 14.5322H24.1739L19.9999 30.6017L15.826 14.5322ZM14.7478 14.5322L18.8382 30.2052L7.12343 14.5322H14.7478ZM21.2034 30.2052L25.2939 14.5322H32.8486L21.2034 30.2052Z" fill="white"/>
<path d="M124.445 36.72L127.371 28.754L127.413 31.106L120.819 14.88H123.871L128.799 27.41H127.903L132.607 14.88H135.575L127.231 36.72H124.445Z" fill="black"/>
<path d="M105.055 30V29.538L113.637 17.498H105.839V14.88H118.285V15.356L109.717 27.382H117.865V30H105.055Z" fill="black"/>
<path d="M101.867 30C100.915 30.1867 99.9813 30.266 99.0667 30.238C98.152 30.21 97.3353 30.0327 96.6167 29.706C95.898 29.3793 95.3567 28.866 94.9927 28.166C94.666 27.5407 94.4887 26.906 94.4607 26.262C94.442 25.6087 94.4327 24.8713 94.4327 24.05V10.68H97.3727V23.91C97.3727 24.5167 97.3773 25.044 97.3867 25.492C97.4053 25.94 97.5033 26.318 97.6807 26.626C98.0167 27.2047 98.5487 27.536 99.2767 27.62C100.014 27.6947 100.877 27.662 101.867 27.522V30ZM91.5347 17.232V14.88H101.867V17.232H91.5347Z" fill="black"/>
<path d="M84.6846 12.402V9.56H87.6106V12.402H84.6846ZM84.6846 30V14.88H87.6106V30H84.6846Z" fill="black"/>
<path d="M75.8744 30V9.42H78.8004V30H75.8744Z" fill="black"/>
<path d="M62.206 30.42C60.8526 30.42 59.6066 30.1867 58.468 29.72C57.3293 29.244 56.34 28.5533 55.5 27.648C54.66 26.7427 54.0066 25.6413 53.54 24.344C53.0733 23.0467 52.84 21.572 52.84 19.92C52.84 17.7453 53.2366 15.8787 54.03 14.32C54.8233 12.752 55.9246 11.548 57.334 10.708C58.7433 9.85866 60.3673 9.43399 62.206 9.43399C64.5766 9.43399 66.4666 9.98466 67.876 11.086C69.2946 12.1873 70.2606 13.7087 70.774 15.65L67.806 16.182C67.3953 14.978 66.7326 14.0167 65.818 13.298C64.9033 12.5793 63.7553 12.2153 62.374 12.206C60.946 12.1967 59.756 12.514 58.804 13.158C57.8613 13.802 57.152 14.7073 56.676 15.874C56.2 17.0313 55.9573 18.38 55.948 19.92C55.9386 21.46 56.172 22.8087 56.648 23.966C57.124 25.114 57.838 26.01 58.79 26.654C59.7513 27.298 60.946 27.6247 62.374 27.634C63.522 27.6527 64.5066 27.4427 65.328 27.004C66.1586 26.556 66.8166 25.9027 67.302 25.044C67.7873 24.1853 68.1 23.1307 68.24 21.88H64.32V19.528H71.348C71.3666 19.696 71.3806 19.92 71.39 20.2C71.3993 20.4707 71.404 20.6433 71.404 20.718C71.404 22.5847 71.0446 24.2507 70.326 25.716C69.6073 27.1813 68.562 28.334 67.19 29.174C65.818 30.0047 64.1566 30.42 62.206 30.42Z" fill="black"/>
</svg>
