<svg width="171" height="50" viewBox="0 0 171 50" fill="none" xmlns="http://www.w3.org/2000/svg">
<path d="M38.913 0H11.087C4.9638 0 0 4.9638 0 11.087V38.913C0 45.0362 4.9638 50 11.087 50H38.913C45.0362 50 50 45.0362 50 38.913V11.087C50 4.9638 45.0362 0 38.913 0Z" fill="#FF6B6B"/>
<path d="M42.9478 17.1739L37.9826 8.82609C37.9255 8.72896 37.8443 8.64827 37.7467 8.59189C37.6492 8.5355 37.5387 8.50534 37.4261 8.50435H12.5739C12.4613 8.50534 12.3508 8.5355 12.2533 8.59189C12.1557 8.64827 12.0745 8.72896 12.0174 8.82609L7.05217 17.1739C6.9822 17.2813 6.94495 17.4066 6.94495 17.5348C6.94495 17.6629 6.9822 17.7883 7.05217 17.8957L24.4435 41.2174C24.5062 41.2954 24.5857 41.3584 24.676 41.4016C24.7663 41.4449 24.8651 41.4673 24.9652 41.4673C25.0653 41.4673 25.1642 41.4449 25.2545 41.4016C25.3448 41.3584 25.4242 41.2954 25.487 41.2174L42.8435 17.9478C42.9536 17.8546 43.0252 17.7239 43.0445 17.5809C43.0638 17.438 43.0293 17.2929 42.9478 17.1739ZM12.9478 9.8087H37.0522L41.2435 16.8522H8.75652L12.9478 9.8087ZM19.7826 18.1652H30.2174L25 38.2522L19.7826 18.1652ZM18.4348 18.1652L23.5478 37.7565L8.90435 18.1652H18.4348ZM26.5043 37.7565L31.6174 18.1652H41.0609L26.5043 37.7565Z" fill="white"/>
<path d="M138.017 36.7917C137.557 38.0679 137.055 39.1035 136.511 39.8986C135.967 40.7145 135.319 41.3003 134.565 41.6559C133.812 42.0325 132.871 42.2208 131.741 42.2208V39.7103C133.247 39.7103 134.388 39.4697 135.162 38.9885C135.936 38.5282 136.553 37.66 137.013 36.3838L137.421 35.2226H136.511L131.898 22.0422C131.689 21.4355 131.532 21.0798 131.427 20.9752C131.323 20.8497 131.103 20.766 130.768 20.7242L129.168 20.5359V19.6886H136.323V20.5359L134.722 20.7242C134.429 20.7451 134.262 20.8183 134.22 20.9439C134.178 21.0694 134.262 21.4355 134.471 22.0422L138.237 32.9004L142.034 22.0108C142.223 21.4041 142.296 21.0485 142.254 20.9439C142.233 20.8393 142.066 20.766 141.752 20.7242L140.12 20.5359V19.6886H145.863V20.5359L144.263 20.7242C143.949 20.766 143.739 20.8393 143.635 20.9439C143.53 21.0485 143.373 21.4041 143.164 22.0108L138.017 36.7917Z" fill="black"/>
<path d="M126.942 30.735H127.758V35.2226H116.178V34.4381L124.588 20.6928H119.881C119.19 20.6928 118.761 20.7451 118.594 20.8497C118.448 20.9334 118.312 21.1531 118.186 21.5087L117.339 24.1762H116.523V19.6886H127.444V20.4731L119.096 34.2184H124.4C125.111 34.2184 125.54 34.1766 125.686 34.0929C125.854 34.0092 125.99 33.7791 126.094 33.4025L126.942 30.735Z" fill="black"/>
<path d="M114.084 32.0217C113.77 33.2351 113.278 34.1243 112.609 34.6891C111.939 35.254 111.082 35.5365 110.036 35.5365C109.031 35.5365 108.215 35.3168 107.588 34.8774C106.96 34.4172 106.5 33.8209 106.207 33.0887C105.914 32.3564 105.768 31.5928 105.768 30.7978V22.2305C105.768 21.4983 105.736 21.0694 105.673 20.9439C105.632 20.8183 105.433 20.7346 105.077 20.6928L103.351 20.5359V19.6886H105.768V15.5775L108.341 15.0441V19.6886H113.456V20.6928H108.341V31.0488C108.341 32.3669 108.519 33.277 108.874 33.7791C109.251 34.2812 109.743 34.5322 110.349 34.5322C110.956 34.5322 111.416 34.3021 111.73 33.8418C112.065 33.3816 112.306 32.6284 112.452 31.5823L114.084 32.0217Z" fill="black"/>
<path d="M98.0215 16.1738C97.5194 16.1738 97.101 16.0169 96.7663 15.7031C96.4524 15.3683 96.2955 14.9395 96.2955 14.4164C96.2955 13.9143 96.4524 13.5063 96.7663 13.1925C97.101 12.8787 97.5194 12.7218 98.0215 12.7218C98.5237 12.7218 98.9316 12.8787 99.2454 13.1925C99.5802 13.5063 99.7475 13.9143 99.7475 14.4164C99.7475 14.9395 99.5802 15.3683 99.2454 15.7031C98.9316 16.0169 98.5237 16.1738 98.0215 16.1738ZM94.3499 20.5359V19.6886H99.3396V32.6807C99.3396 33.413 99.371 33.8418 99.4337 33.9674C99.4965 34.0929 99.6952 34.1766 100.03 34.2184L101.756 34.4067V35.2227H94.3499V34.4067L96.0759 34.2184C96.4106 34.1766 96.6094 34.0929 96.6721 33.9674C96.7349 33.8418 96.7663 33.413 96.7663 32.6807V22.2305C96.7663 21.4983 96.7349 21.0694 96.6721 20.9439C96.6094 20.8183 96.4106 20.7347 96.0759 20.6928L94.3499 20.5359Z" fill="black"/>
<path d="M84.9364 12.8473V12H89.9261V32.6807C89.9261 33.4129 89.9575 33.8418 90.0203 33.9674C90.083 34.0929 90.2818 34.1766 90.6165 34.2184L92.3425 34.4067V35.2226H84.9364V34.4067L86.6624 34.2184C86.9971 34.1766 87.1959 34.0929 87.2587 33.9674C87.3214 33.8418 87.3528 33.4129 87.3528 32.6807V14.5419C87.3528 13.8097 87.3214 13.3808 87.2587 13.2553C87.1959 13.1297 86.9971 13.0461 86.6624 13.0042L84.9364 12.8473Z" fill="black"/>
<path d="M75.3518 26.4043V25.557H83.3542V26.4043L81.6282 26.5612C81.2935 26.6031 81.0947 26.6868 81.032 26.8123C80.9692 26.9378 80.9378 27.3667 80.9378 28.0989V35.2226H80.1846C79.7871 34.6159 79.3164 34.1347 78.7725 33.7791C78.1657 34.323 77.4544 34.7519 76.6385 35.0657C75.8435 35.3796 74.9229 35.5365 73.8769 35.5365C72.2032 35.5365 70.7805 35.1285 69.6089 34.3126C68.4373 33.4757 67.5377 32.3146 66.9101 30.8292C66.3034 29.3438 66 27.6178 66 25.6512V23.2975C66 21.3728 66.3034 19.6781 66.9101 18.2136C67.5377 16.7491 68.4478 15.6089 69.6403 14.793C70.8537 13.9771 72.3182 13.5691 74.0338 13.5691C75.6866 13.5691 77.0464 13.8829 78.1134 14.5106C79.2013 15.1173 79.9754 15.9228 80.4357 16.927C80.9169 17.9312 81.0738 19.0086 80.9064 20.1593L78.2076 20.8183C78.4377 18.8099 78.1867 17.2722 77.4544 16.2052C76.7222 15.1173 75.582 14.5733 74.0338 14.5733C72.3601 14.5733 71.0943 15.1591 70.2366 16.3307C69.3997 17.5023 68.9813 19.3643 68.9813 21.9167V27.1575C68.9813 29.7099 69.4102 31.5823 70.2679 32.7749C71.1466 33.9465 72.4333 34.5322 74.1279 34.5322C74.9857 34.5322 75.7807 34.3753 76.513 34.0615C77.2661 33.7477 77.8938 33.2456 78.3959 32.5552V28.0989C78.3959 27.3667 78.3645 26.9378 78.3017 26.8123C78.239 26.6658 78.0402 26.5822 77.7055 26.5612L75.3518 26.4043Z" fill="black"/>
</svg>
